<?xml version="1.0" ?><svg xmlns="http://www.w3.org/2000/svg" xmlns:xlink="http://www.w3.org/1999/xlink" version="1.1" viewBox="0 0 32 32" style="enable-background:new 0 0 32 32;" xml:space="preserve"><style type="text/css">
	.st0{display:none;}
	.st1{display:inline;}
	.st2{fill:#CDF6F9;}
	.st3{fill:#FFFFFF;}
	.st4{fill:#1A83A8;}
</style><g id="Grid" class="st0"/><g id="Pencil"/><g id="Backpack"/><g id="Research"/><g id="Sunglasses"/><g id="Book"/><g id="Apple"/><g id="Note_Book"/><g id="Open_Book"><path class="st2" d="M16,22.52v0.1c0,1.18-0.96,2.14-2.14,2.14H4.14C2.96,24.76,2,23.8,2,22.62v-9.66c0-1.18,0.96-2.14,2.14-2.14   H5.3v9.6c0,0.81,0.87,1.28,1.59,0.9c1.06-0.56,2.36-0.89,3.76-0.89C12.87,20.43,14.82,21.26,16,22.52z"/><path class="st2" d="M30,12.96v9.66c0,1.18-0.96,2.14-2.14,2.14h-9.72c-1.18,0-2.14-0.96-2.14-2.14v-0.1   c1.18-1.26,3.13-2.09,5.35-2.09c1.4,0,2.7,0.33,3.76,0.89c0.72,0.38,1.59-0.09,1.59-0.9v-9.6h1.16C29.04,10.82,30,11.78,30,12.96z"/><path class="st3" d="M26.696,20.416c0,0.816-0.867,1.289-1.588,0.907c-1.062-0.562-2.358-0.893-3.755-0.893   c-2.219,0-4.173,0.827-5.353,2.085c-1.18-1.258-3.134-2.085-5.353-2.085c-1.398,0-2.693,0.331-3.755,0.893   c-0.721,0.381-1.588-0.091-1.588-0.907V9.779c0-0.288,0.107-0.573,0.321-0.766c1.197-1.08,3.003-1.77,5.022-1.77   c2.219,0,4.173,0.827,5.353,2.085c1.18-1.258,3.134-2.085,5.353-2.085c2.019,0,3.826,0.691,5.022,1.77   c0.214,0.193,0.321,0.478,0.321,0.766V20.416z"/><path class="st4" d="M27.862,9.924h-0.266V9.779c0-0.557-0.226-1.08-0.619-1.434c-1.409-1.273-3.46-2.002-5.625-2.002   c-2.028,0-3.965,0.647-5.353,1.763c-1.389-1.115-3.325-1.763-5.353-1.763c-2.164,0-4.214,0.729-5.624,2.001   C4.629,8.698,4.404,9.221,4.404,9.779v0.145H4.138c-1.675,0-3.038,1.363-3.038,3.038v9.659c0,1.675,1.363,3.038,3.038,3.038h9.725   c0.833,0,1.588-0.338,2.138-0.883c0.549,0.545,1.305,0.883,2.138,0.883h9.725c1.675,0,3.038-1.363,3.038-3.038v-9.659   C30.9,11.287,29.537,9.924,27.862,9.924z M16.9,9.715c1.071-0.986,2.703-1.573,4.453-1.573c1.726,0,3.336,0.561,4.419,1.539   c0.005,0.005,0.024,0.039,0.024,0.098v10.637c0,0.041-0.007,0.084-0.061,0.116c-0.028,0.018-0.105,0.05-0.206-0.004   c-1.234-0.652-2.679-0.997-4.177-0.997c-1.622,0-3.181,0.42-4.453,1.157V9.715z M6.204,9.779c0-0.054,0.017-0.089,0.024-0.098   c1.084-0.978,2.695-1.539,4.419-1.539c1.749,0,3.381,0.586,4.453,1.573v10.973c-1.272-0.737-2.831-1.157-4.453-1.157   c-1.498,0-2.942,0.345-4.176,0.997c-0.102,0.053-0.178,0.021-0.207,0.004c-0.053-0.032-0.061-0.075-0.061-0.116V9.779z    M13.862,23.858H4.138c-0.683,0-1.238-0.555-1.238-1.238v-9.659c0-0.683,0.555-1.238,1.238-1.238h0.266v8.692   c0,0.687,0.348,1.307,0.932,1.658c0.603,0.363,1.341,0.38,1.977,0.045c0.975-0.516,2.128-0.788,3.334-0.788   c1.723,0,3.332,0.568,4.405,1.528C14.938,23.423,14.461,23.858,13.862,23.858z M29.1,22.62c0,0.683-0.555,1.238-1.237,1.238h-9.725   c-0.598,0-1.075-0.435-1.19-1c1.073-0.959,2.682-1.528,4.405-1.528c1.206,0,2.359,0.272,3.335,0.788   c0.633,0.335,1.371,0.318,1.977-0.044c0.584-0.352,0.933-0.971,0.933-1.658v-8.692h0.266c0.683,0,1.237,0.555,1.237,1.238V22.62z"/></g><g id="Homework"/><g id="Certificate"/><g id="Bell"/><g id="Projector"/><g id="Note_Book_1_"/><g id="Paper"/><g id="Science_Book"/><g id="Test"/><g id="Whiteboard"/><g id="Schedule"/><g id="School"/><g id="Ebook"/><g id="Globe"/><g id="Planner"/><g id="Presentation"/><g id="Global_Education"/><g id="Failed"/></svg>